<svg xmlns="http://www.w3.org/2000/svg" viewBox="0 0 50 50.93"><defs><style>.cls-1{fill:#fff;}.cls-2,.cls-3{fill:#705330;}.cls-3{font-size:12px;font-family:Arial-BoldMT, Arial;font-weight:700;}.cls-4{letter-spacing:-0.02em;}</style></defs><title>アセット 1</title><g id="レイヤー_2" data-name="レイヤー 2"><g id="レイヤー_1-2" data-name="レイヤー 1"><rect class="cls-1" width="50" height="50" rx="4" ry="4"/><path class="cls-2" d="M37.74,26.17c0-2.57-2.8-6.08-3.37-6.88-1-1.39-2.91-3.88-3-4.35V12.06a.36.36,0,0,0-.36-.36H29a.36.36,0,0,0-.36.36v2.09H23V12.06a.36.36,0,0,0-.36-.36h-2a.36.36,0,0,0-.36.36V15c0,.46-1.94,3-3,4.35-.58.8-3.38,4.3-3.38,6.88v5.7c0,.84-.08,1.69,1.64,1.69h20.5c1.73,0,1.64-.84,1.64-1.69ZM39.68,6a5.36,5.36,0,0,0-2.59-2.33c-1.1-.41-7.78-1-14.42,1s-11.75,6.43-12.42,7.4a5.35,5.35,0,0,0-.79,3.39,5.18,5.18,0,0,0,.82,2.62,7.47,7.47,0,0,0,2.54,1.46c.65.1,1.75-.64,2.8-1.63a6.94,6.94,0,0,0,1.76-2.41,5.26,5.26,0,0,0-1-2.43c-.43-.4-.73-.92-.22-1.39C18,10,20.62,9.17,23.75,8.18S29.54,6.42,32,6.74c.69.09.75.69.62,1.26a5.27,5.27,0,0,0,.58,2.56,7,7,0,0,0,2.83,1c1.44.21,2.76.19,3.23-.27A7.46,7.46,0,0,0,40.5,8.62,5.2,5.2,0,0,0,39.68,6Z"/><text class="cls-3" transform="translate(14.57 46.41)">TE<tspan class="cls-4" x="15.33" y="0">L</tspan></text></g></g></svg>