<?xml version="1.0" encoding="utf-8"?>
<!-- Generator: Adobe Illustrator 23.0.3, SVG Export Plug-In . SVG Version: 6.00 Build 0)  -->
<svg version="1.1" id="レイヤー_1" xmlns="http://www.w3.org/2000/svg" xmlns:xlink="http://www.w3.org/1999/xlink" x="574px" y="448px" viewBox="0 0 573.67 447.39" style="enable-background:new 0 0 574 448;" xml:space="preserve">
<style type="text/css">
	.st0{fill:#FFFFFF;}
</style>
<path class="st0" d="M262.95,19.27c-9.07,3.4-23.42-1.13-47.98,6.8c-27.96,9.07-64.61,18.89-132.23,49.49c0,0-2.64,27.2-6.42,51.76
	l-4.16,27.96c0,0,39.67-20.4,71.03-29.09c21.54-6.04,46.85-11.71,59.69-11.71c4.16,0,9.82,0.76,9.82,6.8
	c0,4.53-3.78,10.58-10.2,12.85c-8.31,3.02-17,1.51-38.54,6.8c-21.16,5.29-59.69,19.65-94.83,43.45c0,0-4.16,39.29-4.16,64.98
	c0,4.91,0,9.45,0.38,12.85c0.76,5.29,2.64,10.2,2.64,14.36c0,6.04-6.04,10.58-12.47,10.58c-3.4,0-6.8-1.13-9.07-3.4
	c-0.75-0.76-1.13-4.91-1.13-10.96c0-18.51,3.02-55.92,3.02-80.1c0,0-8.31-3.78-8.31-11.33s2.65-8.69,10.58-15.87
	c0,0,2.64-27.58,3.78-40.8l3.02-38.91c0,0-40.05,15.11-47.6,15.11C3.02,99.36,0,94.45,0,89.54c0-3.02,0.75-5.67,2.27-7.93
	c3.4-4.53,37.03-10.2,55.54-18.13c0,0,0-0.76,0-1.89c0-6.8,1.13-20.78,11.71-20.78c7.18,0,11.71,7.18,12.47,13.6
	c0,0,102.01-37.03,121.28-42.31C220.26,7.56,247.46,0,259.93,0c6.04,0,10.96,3.78,10.96,9.82C270.89,13.6,268.24,17.38,262.95,19.27
	z"/>
<path class="st0" d="M284.18,277.69c-4.16,1.89-8.31,3.02-11.71,3.02c-44.58,0-45.71-135.25-46.09-149.23
	c0-9.07,3.4-12.09,7.56-12.09h1.89c8.31,0,11.33,9.45,11.33,14.36c0,5.29-0.38,10.2-0.38,15.11c0,60.45,13.22,108.43,26.07,108.43
	c2.27,0,4.91-1.89,7.56-6.42c18.89-33.25,25.31-94.45,25.69-104.27c0-5.29,0.38-13.6,12.09-13.6c9.82,0,10.58,15.11,10.58,15.11
	C328.76,155.28,306.85,267.11,284.18,277.69z"/>
<path class="st0" d="M405.91,277.69c-4.16,1.89-8.31,3.02-11.71,3.02c-44.58,0-45.71-135.25-46.09-149.23
	c0-9.07,3.4-12.09,7.56-12.09h1.89c8.31,0,11.33,9.45,11.33,14.36c0,5.29-0.38,10.2-0.38,15.11c0,60.45,13.22,108.43,26.07,108.43
	c2.27,0,4.91-1.89,7.56-6.42c18.89-33.25,25.31-94.45,25.69-104.27c0-5.29,0.38-13.6,12.09-13.6c9.82,0,10.58,15.11,10.58,15.11
	C450.49,155.28,428.58,267.11,405.91,277.69z"/>
<path class="st0" d="M527.64,277.69c-4.16,1.89-8.31,3.02-11.71,3.02c-44.58,0-45.71-135.25-46.09-149.23
	c0-9.07,3.4-12.09,7.56-12.09h1.89c8.31,0,11.33,9.45,11.33,14.36c0,5.29-0.38,10.2-0.38,15.11c0,60.45,13.22,108.43,26.07,108.43
	c2.27,0,4.91-1.89,7.56-6.42c18.89-33.25,25.31-94.45,25.69-104.27c0-5.29,0.38-13.6,12.09-13.6c9.82,0,10.58,15.11,10.58,15.11
	C572.22,155.28,550.3,267.11,527.64,277.69z"/>
<path class="st0" d="M94.72,425.96c0,2.54,0.32,4.76,0.32,6.35c0,2.22-0.63,3.65-4.29,3.65c-3.81,0-4.92-3.33-4.92-7.46
	c0-4.45,0.63-9.84,0.63-18.42c0-11.91-1.11-25.88-4.6-28.1c-0.63-0.48-1.59-0.64-2.54-0.64c-9.53,0-29.37,19.37-33.82,28.9
	c-3.49,7.46-4.13,14.92-4.13,19.21c0,1.75,0.32,3.49,0.32,5.4c0,5.88-3.17,7.62-6.03,7.62c-2.86,0-5.4-1.91-5.4-5.24
	c0-2.22,1.11-4.6,2.06-6.67c1.75-3.65-0.16-23.02,4.13-62.24c2.86-26.2,1.43-39.85,6.99-39.85c4.13,0,5.56,2.06,5.56,5.72
	c0,4.92-2.38,13.18-3.49,25.56c-1.27,13.18-2.38,26.36-3.02,40.8c0,0,21.43-27.94,37.95-27.94c1.43,0,2.86,0.16,4.29,0.64
	c8.57,3.02,10.48,20,10.48,36.04C95.2,414.68,94.72,421.35,94.72,425.96z"/>
<path class="st0" d="M143.13,434.85c-0.32,0.48-1.11,0.63-1.91,0.63c-1.11,0-2.54-0.32-3.33-1.27c-0.95-0.95-1.43-3.65-1.43-3.65
	s-11.27,7.94-21.12,7.94c-7.94,0-12.54-4.92-12.54-12.54c0-10.64,9.37-25.09,21.59-25.09c8.73,0,12.7,7.78,15.08,15.08
	c0,0,2.54-5.87,2.54-14.45c0-9.21-3.33-26.99-15.88-26.99c-6.35,0-12.54,4.29-12.86,6.51c0,0.63-0.48,0.79-1.27,0.79
	c-1.75,0-4.45-1.11-4.6-3.97c0-5.4,10.32-10.8,19.53-10.8c3.33,0,6.35,0.64,8.89,2.22c10.95,6.83,14.13,19.53,14.13,31.91
	C149.96,418.02,143.93,434.37,143.13,434.85z M124.87,408.81c-7.94,0-14.61,8.57-14.61,16.51c0,3.49,1.43,5.72,5.4,5.72
	c7.78,0,18.42-8.89,18.42-8.89S130.11,408.81,124.87,408.81z"/>
<path class="st0" d="M175.73,324.66c-0.16,2.06-2.22,4.76-4.29,9.84c-2.38,5.87-1.27,8.57-2.86,10.16
	c-0.79,0.79-1.75,1.43-2.86,1.43c-2.38,0-2.86-3.18-2.86-5.4c0-2.86,0.79-6.51,2.7-10.64c3.33-6.83,2.06-10.48,6.19-10.48
	c2.22,0,3.97,1.91,3.97,4.45V324.66z M171.6,416.27v3.02c0,7.14,1.91,7.46,1.91,10.32c0,2.7-1.11,5.24-4.29,5.24
	c-1.11,0-2.54-0.48-3.81-1.43c-1.43-1.11-1.91-4.6-1.91-10.32c0-7.62,0.79-19.05,1.59-34.29c0.48-8.73-0.16-17.78,5.4-18.1
	c2.7,0,4.92,2.38,4.92,6.03C175.41,382.14,171.6,410.08,171.6,416.27z"/>
<path class="st0" d="M248.51,376.42c-2.06,0-3.81-1.43-6.35-1.43c-1.11,0-2.54,0.32-4.13,1.27c-10,5.87-22.07,19.37-33.5,36.67
	c-5.87,8.89-3.81,21.12-5.87,23.82c-0.95,1.27-2.22,1.75-3.49,1.75c-1.59,0-3.17-0.79-4.29-1.91c-0.95-0.95-1.27-2.38-1.27-4.45
	c0-4.76,1.91-12.86,2.54-25.08c0.16-4.13,0.32-7.62,0.32-10.8c0-19.85-3.49-23.18-3.49-25.09c0-1.75,3.17-3.65,4.76-3.65
	c1.11,0,2.22,0.48,3.49,1.59c2.38,2.22,2.86,5.87,3.17,15.56c0.16,5.56,0.16,8.57,0.16,19.21c0,0,10.96-14.61,21.12-23.97
	c5.87-5.56,12.38-12.86,21.91-12.86c2.22,0,4.6,0.32,7.3,1.27c0.95,0.32,2.22,2.22,2.22,4.13
	C253.11,374.52,250.89,376.42,248.51,376.42z"/>
<path class="st0" d="M334.91,432.31c-1.27,0-2.7-0.63-3.49-2.06c-1.27-2.54-1.75-9.53-1.75-16.99c0-7.94,0.48-16.67,0.48-21.27
	v-0.63c0-0.79-0.63-17.78-3.97-17.78c-1.59,0-12.07,15.24-19.69,33.82c-8.89,21.59-8.1,32.71-12.23,32.71
	c-0.16,0-0.32-0.16-0.63-0.16c-6.51-1.59-5.08-4.92-5.72-21.59c-0.79-23.34-1.43-39.53-3.49-40.8c-0.16-0.16-0.32-0.16-0.48-0.16
	c-4.45,0-16.83,26.83-20.32,48.27c-0.32,2.22-0.48,3.97-0.48,5.4c0,3.02,0.48,4.45,0.48,5.56c0,2.06-3.02,3.02-5.08,3.02
	c-1.75,0-3.49-0.48-4.13-1.59c-0.63-0.95-0.79-3.33-0.79-6.67c0-10.16,2.22-28.26,2.54-32.07c0.16-2.22,0.32-4.29,0.32-6.03
	c0-5.56-0.63-9.84-0.63-12.7c0-2.7,1.59-5.24,4.92-5.24c1.11,0,2.22,0.48,3.02,1.27c2.06,2.22,2.86,3.18,3.81,10.16
	c0,0,10.64-23.18,16.51-23.18c2.54,0,6.19,3.02,7.62,5.71c1.59,2.38,3.02,14.92,4.13,41.44c0,0,19.53-45.41,31.12-47
	c3.49,0,8.42,5.87,9.37,9.53c1.43,5.24,1.75,22.7,1.75,34.93c0,6.35-0.16,11.27-0.16,12.54c0,2.22,1.59,5.4,1.59,7.78
	C339.51,431.04,337.29,432.31,334.91,432.31z"/>
<path class="st0" d="M387.54,434.85c-0.32,0.48-1.11,0.63-1.91,0.63c-1.11,0-2.54-0.32-3.33-1.27c-0.95-0.95-1.43-3.65-1.43-3.65
	s-11.27,7.94-21.12,7.94c-7.94,0-12.54-4.92-12.54-12.54c0-10.64,9.37-25.09,21.59-25.09c8.73,0,12.7,7.78,15.08,15.08
	c0,0,2.54-5.87,2.54-14.45c0-9.21-3.33-26.99-15.88-26.99c-6.35,0-12.54,4.29-12.86,6.51c0,0.63-0.48,0.79-1.27,0.79
	c-1.75,0-4.45-1.11-4.6-3.97c0-5.4,10.32-10.8,19.53-10.8c3.33,0,6.35,0.64,8.89,2.22c10.96,6.83,14.13,19.53,14.13,31.91
	C394.37,418.02,388.34,434.37,387.54,434.85z M369.28,408.81c-7.94,0-14.61,8.57-14.61,16.51c0,3.49,1.43,5.72,5.4,5.72
	c7.78,0,18.42-8.89,18.42-8.89S374.52,408.81,369.28,408.81z"/>
<path class="st0" d="M495,430.08c-3.02,1.11-7.62,4.6-19.21,4.92h-0.95c-16.51,0-37.47-10.16-59.54-29.05c0,0-1.75,7.94-1.75,21.59
	v3.02c0.16,4.92,2.06,9.53,2.06,12.7c0,2.54-1.27,4.13-6.03,4.13c-3.33,0-4.45-5.72-4.45-16.35c0-2.38,0-4.92,0.16-7.62
	c1.43-46.04,12.54-88.12,15.08-89.23c0.79-0.32,1.75-0.64,2.54-0.64c2.22,0,3.97,1.59,4.76,4.76c0.16,0.48,0.16,0.95,0.16,1.43
	c0,3.49-3.65,5.56-7.3,25.72c-1.59,8.89-2.7,14.13-3.65,21.43c0,0,47.15-14.77,61.44-16.19c1.59,0,2.86,1.59,2.86,3.33
	c0,1.27-0.64,2.7-2.06,3.65c-3.02,1.91-24.93,3.18-61.92,18.58c0,0,12.22,14.13,38.74,26.04c8.41,3.81,15.4,5.08,20.8,5.08
	c10,0,15.08-4.45,15.88-5.87c0.79-1.27,2.7-2.22,4.45-2.22c2.22,0,4.45,1.27,4.76,4.76C501.83,427.07,498.33,428.81,495,430.08z"/>
<path class="st0" d="M570.02,411.19c-3.49,1.91-29.05,25.24-47,25.24c-2.54,0-4.92-0.48-6.99-1.43
	c-10.32-4.76-17.62-17.31-17.62-29.05c0-1.91,0.16-3.81,0.64-5.72c4.13-17.94,24.61-30.17,41.28-30.17c5.24,0,9.84,1.11,13.65,3.65
	c0.48,0.32,0.63,0.63,0.63,1.11c0,3.97-13.5,14.13-22.54,19.53c-9.84,6.03-19.53,6.99-23.97,7.3c0,0-0.48,1.75-0.48,4.6
	c0,3.33,0.79,8.26,4.29,13.65c2.86,4.6,5.87,8.41,12.86,8.41c12.54,0,37.15-20.16,38.74-22.39c0.95-1.75,2.7-5.87,5.4-5.87
	c2.38,0,4.76,2.38,4.76,5.08C573.67,407.38,572.08,409.76,570.02,411.19z M524.93,382.14c-8.1,4.13-13.02,10.64-13.02,10.64
	s8.89-0.48,18.73-6.51c4.13-2.38,6.83-4.13,11.75-8.57C536.52,377.69,530.64,379.12,524.93,382.14z"/>
</svg>
